<svg width="250" height="200" viewBox="0 0 250 200" fill="none" xmlns="http://www.w3.org/2000/svg">
<path id="Vector" d="M133.938 200V142.857H169.655L125.009 85.7143L80.3629 142.857H116.08V200H71.4337V199.524C69.9336 199.619 68.5049 200 66.9691 200C49.2078 200 32.1739 192.475 19.6148 179.079C7.05565 165.684 0 147.515 0 128.571C0 91.9238 25.984 62.0571 59.3257 57.9619C62.2489 41.6627 70.4058 26.9594 82.3935 16.3809C94.3812 5.80246 109.45 0.0100574 125.009 0C140.57 0.00928883 155.641 5.80101 167.632 16.3792C179.623 26.9575 187.783 41.6612 190.71 57.9619C224.052 62.0571 250 91.9238 250 128.571C250 147.515 242.944 165.684 230.385 179.079C217.826 192.475 200.792 200 183.031 200C181.531 200 180.084 199.619 178.566 199.524V200H133.938Z" fill="#526D82"/>
</svg>
